<?xml version="1.0" standalone="no"?>
<!DOCTYPE svg PUBLIC "-//W3C//DTD SVG 20010904//EN"
 "http://www.w3.org/TR/2001/REC-SVG-20010904/DTD/svg10.dtd">
<svg version="1.0" xmlns="http://www.w3.org/2000/svg"
 width="500.000000pt" height="500.000000pt" viewBox="0 0 500.000000 500.000000"
 preserveAspectRatio="xMidYMid meet">
<metadata>
Created by potrace 1.14, written by Peter Selinger 2001-2017
</metadata>
<g transform="translate(0.000000,500.000000) scale(0.100000,-0.100000)"
fill="#000000" stroke="none">
<path d="M3685 4921 l1 -79 -36 -6 c-19 -3 -806 -6 -1747 -6 l-1713 0 0 -2330
0 -2330 1703 0 c1561 -1 1772 -3 1787 -17 3 -3 5 -37 5 -76 l0 -72 658 -3 657
-2 0 2500 0 2500 -658 0 -658 0 1 -79z m-2440 -2246 c192 -559 263 -755 275
-755 11 0 62 137 194 523 98 287 215 627 258 755 l80 232 259 0 259 0 0 -1025
0 -1025 -190 0 -190 0 0 681 0 680 -22 -3 c-19 -3 -49 -81 -257 -681 l-236
-677 -170 2 -170 3 -235 678 c-211 607 -237 677 -255 675 -20 -3 -20 -12 -23
-680 l-2 -678 -185 0 -185 0 0 1025 0 1025 268 0 267 0 260 -755z m2920 723
c209 -71 350 -214 406 -413 21 -73 19 -334 -3 -400 -59 -182 -163 -302 -323
-374 -108 -48 -150 -54 -445 -60 l-285 -6 -3 -382 -2 -383 -200 0 -200 0 0
1026 0 1025 488 -3 487 -4 80 -26z"/>
<path d="M3510 2790 l0 -322 233 4 233 3 59 30 c67 34 118 93 137 158 15 55
16 201 0 254 -19 65 -70 124 -137 158 l-58 30 -234 3 -233 3 0 -321z"/>
</g>
</svg>
